# xmcd
# 
# Track frame offsets:
#   150
#   16075
#   31437
#   47295
#   63807
#   81620
#   93622
#   111290
#   124932
#   138495
#   150177
#   166792
#   187987
#   208557
# 
# Disc length: 3033 seconds
# 
# Revision: 2
# Processed by: cddbd v1.5.1PL2 Copyright (c) Steve Scherf et al.
# Submitted via: Synapstar 1.0 
# 
DISCID=ad0bd70e
DTITLE=Various Artist - SD025
DYEAR=1900
DGENRE=Country
TTITLE0=Tim McGraw - All I Want Is A Life
TTITLE1=Alan Jackson - Home
TTITLE2=Collin Raye - I Think About You
TTITLE3=Bryan White - I'm Not Supposed To Love You Anymore
TTITLE4=Toby Keith - Does That Blue Moon Ever Shine On You
TTITLE5=Joe Diffie - C-O-U-N-T-R-Y
TTITLE6=Lee Roy Parnell - Heart's Desire
TTITLE7=Jeff Carson - Holdin' On To Something
TTITLE8=Shenandoah - All Over But The Shoutin'
TTITLE9=Doug Supernaw - She Never Looks Back
TTITLE10=Sammy Kershaw - Meant To Be
TTITLE11=Shania Twain - Whose Bed Have Your Boots Been Under
TTITLE12=Shania Twain - If You're Not In It For Love
TTITLE13=Shania Twain - Any Man Of Mine
EXTD=MediaType: Karaoke CD+G Producer: StarDisc
EXTT0=
EXTT1=
EXTT2=
EXTT3=
EXTT4=
EXTT5=
EXTT6=
EXTT7=
EXTT8=
EXTT9=
EXTT10=
EXTT11=
EXTT12=
EXTT13=
PLAYORDER=
